<svg width="100" height="39" viewBox="0 0 100 39" fill="none" xmlns="http://www.w3.org/2000/svg">
<g clip-path="url(#clip0_1309_12547)">
<path d="M12.9622 30.1269V9.32773H14.4396C17.3876 9.32773 19.3544 9.2155 21.3821 11.5071C23.1616 13.6325 23.9623 16.9857 23.9623 19.5601C23.9623 22.1344 23.4706 24.7021 21.9955 26.9398C21.3138 28.0072 20.3595 28.8754 19.2303 29.4558C17.6334 30.2391 16.5237 30.1291 14.8073 30.1291L12.9622 30.1269ZM0.00439453 38.9609H16.4087C22.2436 38.9609 27.4606 37.731 31.6423 33.7606C35.5128 30.1269 37.4796 24.8704 37.4796 19.8451C37.4796 14.3665 35.4496 9.11002 31.0288 5.30795C26.4818 1.33755 21.6302 0.610352 15.5471 0.610352H0.00439453V38.9609Z" fill="#0075C9"/>
<path d="M75.4265 16.0923V8.76875H80.648C81.8773 8.76875 83.2283 8.76876 84.3335 9.27151C84.9357 9.54771 85.4465 9.98885 85.8059 10.5433C86.1654 11.0978 86.3588 11.7427 86.3635 12.4025C86.3635 15.7018 82.9802 16.0923 80.1586 16.0923H75.4265ZM100 38.9608L92.3812 22.2421C97.3591 20.1749 99.8243 17.1539 99.8243 12.1219C99.8243 8.37598 98.1665 4.96444 94.6637 2.95343C91.5308 1.0524 87.4754 0.603516 83.7899 0.603516H62.3491V38.9608H75.431V24.3204H79.4909L85.6349 38.9698L100 38.9608Z" fill="#0075C9"/>
<path d="M42.6722 11.347C49.2515 10.1978 49.2515 12.5208 55.8241 11.347V38.9534H42.6722V11.347Z" fill="#0075C9"/>
<path d="M42.6722 0.334733C49.2515 -0.825637 49.2515 1.49735 55.8241 0.334733V7.96579C49.2515 9.11719 49.2515 6.7942 42.6722 7.96579V0.334733Z" fill="#0075C9"/>
</g>
<defs>
<clipPath id="clip0_1309_12547">
<rect width="100" height="38.9611" fill="white"/>
</clipPath>
</defs>
</svg>
