<svg class="w-full drop-shadow-2xl" viewBox="0 0 584 259" fill="none">
    <g clip-path="url(#clip0_748_2082)">
        <path fill-rule="evenodd" clip-rule="evenodd" d="M245.468 90.8039V105.92L264.263 90.8039H274.716C289.085 90.8039 300.736 79.1523 300.736 64.7835V64.9259C300.736 50.4384 289.797 37.9799 275.357 36.8171C259.149 35.5119 245.456 48.4213 245.456 64.3682V90.8158L245.468 90.8039ZM255.091 6.80994C260.027 6.80994 264.025 10.8797 263.883 15.8512C263.752 20.4431 259.932 24.2637 255.34 24.3942C250.369 24.5366 246.299 20.538 246.299 15.6021C246.299 10.6661 250.238 6.80994 255.091 6.80994Z" fill="white"></path>
        <path fill-rule="evenodd" clip-rule="evenodd" d="M318.795 81.7745L337.59 96.8908V81.7745V55.8845C337.59 41.3971 326.65 28.9386 312.21 27.7758C296.002 26.4706 282.31 39.38 282.31 55.3269V56.5015C282.31 70.9534 294.033 81.7864 308.485 81.7864H318.795V81.7745ZM328.798 6.80994C333.651 6.80994 337.59 10.7492 337.59 15.6021C337.59 20.455 333.651 24.3942 328.798 24.3942C323.945 24.3942 320.006 20.455 320.006 15.6021C320.006 10.7492 323.945 6.80994 328.798 6.80994Z" fill="white"></path>
        <path fill-rule="evenodd" clip-rule="evenodd" d="M263.895 98.2197V113.336L282.689 98.2197H292.597C307.274 98.2197 319.163 86.3189 319.163 71.6535V52.4911C319.163 38.0037 308.223 25.5452 293.783 24.3824C277.576 23.0772 263.883 35.9866 263.883 51.9335V98.2316L263.895 98.2197ZM291.114 -0.000671387C296.062 -0.000671387 300.048 4.08097 299.906 9.0525C299.775 13.6443 295.943 17.465 291.363 17.5955C286.391 17.726 282.322 13.7393 282.322 8.80333C282.322 3.8674 286.261 0.0111938 291.114 0.0111938V-0.000671387Z" fill="white"></path>
        <path style="mix-blend-mode: multiply" fill-rule="evenodd" clip-rule="evenodd" d="M245.468 90.8043V105.921L264.263 90.8043H274.716C289.085 90.8043 300.736 79.1526 300.736 64.7838V64.9262C300.736 50.4388 289.797 37.9803 275.357 36.8175C259.149 35.5123 245.456 48.4217 245.456 64.3686V90.8162L245.468 90.8043ZM255.091 6.8103C260.027 6.8103 264.025 10.8801 263.883 15.8516C263.752 20.4435 259.932 24.2641 255.34 24.3946C250.369 24.537 246.299 20.5384 246.299 15.6024C246.299 10.6665 250.238 6.8103 255.091 6.8103Z" fill="url(#paint0_linear_748_2082)"></path>
        <path style="mix-blend-mode: multiply" fill-rule="evenodd" clip-rule="evenodd" d="M318.795 81.7749L337.59 96.8912V81.7749V55.8849C337.59 41.3975 326.65 28.939 312.21 27.7762C296.002 26.471 282.31 39.3804 282.31 55.3272V56.5019C282.31 70.9538 294.033 81.7867 308.485 81.7867H318.795V81.7749ZM328.798 6.8103C333.651 6.8103 337.59 10.7496 337.59 15.6024C337.59 20.4553 333.651 24.3946 328.798 24.3946C323.945 24.3946 320.006 20.4553 320.006 15.6024C320.006 10.7496 323.945 6.8103 328.798 6.8103Z" fill="url(#paint1_linear_748_2082)"></path>
        <path style="mix-blend-mode: multiply" fill-rule="evenodd" clip-rule="evenodd" d="M263.895 98.2201V113.336L282.689 98.2201H292.597C307.274 98.2201 319.163 86.3193 319.163 71.6538V52.4915C319.163 38.004 308.223 25.5455 293.783 24.3828C277.576 23.0776 263.883 35.9869 263.883 51.9338V98.232L263.895 98.2201ZM291.114 -0.000305176C296.062 -0.000305176 300.048 4.08134 299.906 9.05287C299.775 13.6447 295.943 17.4653 291.363 17.5958C286.391 17.7264 282.322 13.7396 282.322 8.8037C282.322 3.86776 286.261 0.0115601 291.114 0.0115601V-0.000305176Z" fill="url(#paint2_linear_748_2082)"></path>
        <path d="M34.4925 160.797C31.9652 159.385 29.0107 158.092 25.6529 156.929C23.3036 156.098 21.2034 155.291 19.3524 154.52C17.5015 153.749 16.0539 152.895 14.986 151.957C13.9182 151.02 13.3961 149.893 13.3961 148.576C13.3961 146.748 14.0843 145.384 15.4488 144.482C16.8133 143.569 18.7473 143.118 21.2509 143.118C23.7544 143.118 25.6885 143.735 26.8275 144.957C27.9666 146.179 28.5361 147.816 28.5361 149.869V151.317H42.0506V149.228C42.0506 145.586 41.137 142.524 39.3216 140.045C37.4944 137.565 35.0146 135.69 31.8584 134.432C28.7141 133.163 25.1189 132.534 21.0966 132.534C17.0743 132.534 13.6927 133.175 10.5603 134.444C7.43975 135.726 4.95991 137.553 3.1208 139.95C1.28169 142.346 0.368066 145.23 0.368066 148.623C0.368066 152.017 1.10371 154.71 2.575 156.953C4.04629 159.195 5.96846 161.022 8.3415 162.458C10.7146 163.894 13.2774 165.033 16.0064 165.887C18.51 166.646 20.7644 167.465 22.7578 168.331C24.7511 169.209 26.3411 170.159 27.5157 171.191C28.6904 172.223 29.2836 173.398 29.2836 174.679C29.2836 176.471 28.5836 177.764 27.1716 178.547C25.7597 179.33 23.79 179.722 21.2271 179.722C18.6643 179.722 16.7184 179.081 15.4369 177.788C14.1555 176.495 13.5147 174.75 13.5147 172.555V170.74H0.000244141V172.828C0.000244141 176.696 0.913867 179.936 2.72925 182.522C4.55649 185.121 7.06006 187.067 10.2399 188.384C13.4317 189.701 17.0625 190.353 21.1322 190.353C25.202 190.353 28.9989 189.724 32.2144 188.479C35.4298 187.221 37.9334 185.405 39.7488 183.009C41.5523 180.612 42.4659 177.705 42.4659 174.264C42.4659 170.823 41.7659 168.225 40.3776 166.101C38.9894 163.977 37.0198 162.209 34.4925 160.785V160.797Z" fill="white"></path>
        <path d="M57.7958 132.806C56.2771 131.762 54.4973 131.228 52.4446 131.228C50.3919 131.228 48.6478 131.75 47.1171 132.806C45.5865 133.862 44.8271 135.369 44.8271 137.339C44.8271 139.309 45.5865 140.792 47.1171 141.86C48.6478 142.928 50.4275 143.45 52.4446 143.45C54.4617 143.45 56.2771 142.928 57.7958 141.872C59.3146 140.827 60.074 139.309 60.074 137.339C60.074 135.369 59.3146 133.851 57.7958 132.806Z" fill="white"></path>
        <path d="M59.1603 149.109H45.7644V189.415H59.1603V149.109Z" fill="white"></path>
        <path d="M99.4072 150.355C97.3189 148.991 94.5899 148.302 91.2321 148.302C87.8742 148.302 85.1215 149.038 82.5467 150.497C80.411 151.708 78.6668 153.357 77.2667 155.374V149.086H63.7522V189.392H77.2667V168.746C77.2667 166.895 77.5633 165.293 78.1447 163.929C78.7261 162.564 79.6042 161.508 80.7669 160.761C81.9297 160.013 83.3654 159.646 85.0503 159.646C87.0199 159.646 88.5031 160.061 89.476 160.88C90.449 161.698 91.1016 162.778 91.4457 164.107C91.7897 165.436 91.9559 166.86 91.9559 168.378V189.404H105.47V164.427C105.47 161.259 104.984 158.471 104.011 156.039C103.038 153.606 101.507 151.708 99.4191 150.343L99.4072 150.355Z" fill="white"></path>
        <path d="M120.563 178.298C123.221 179.093 126.223 179.508 129.604 179.508C133.603 179.508 136.889 178.867 139.476 177.574C142.063 176.281 144.139 174.513 145.717 172.258C147.295 170.004 148.541 167.417 149.455 164.475L154.236 149.109H142.395L141.98 153.606C141.802 153.381 141.624 153.155 141.41 152.942C139.998 151.53 138.147 150.403 135.869 149.56C133.591 148.73 131.123 148.302 128.465 148.302C124.799 148.302 121.488 148.955 118.546 150.272C115.603 151.589 113.266 153.428 111.557 155.789C109.849 158.151 108.994 160.939 108.994 164.154C108.994 167.37 109.837 170.075 111.522 172.365C112.233 173.338 113.1 174.192 114.073 174.975C113.788 175.153 113.503 175.343 113.195 175.569C112.115 176.352 111.154 177.349 110.311 178.547C109.469 179.745 109.042 181.086 109.042 182.546C109.042 184.954 110.003 186.805 111.925 188.122C113.847 189.439 116.256 190.258 119.139 190.59L134.398 192.299C135.667 192.429 136.795 192.667 137.791 193.022C138.788 193.378 139.286 194.031 139.286 194.992C139.286 195.68 138.883 196.285 138.076 196.807C137.269 197.341 136.13 197.745 134.683 198.018C133.223 198.291 131.515 198.433 129.545 198.433C126.733 198.433 124.372 198.136 122.449 197.543C120.527 196.95 119.566 196.096 119.566 194.98C119.566 194.494 119.626 194.102 119.732 193.782C119.851 193.462 119.958 193.248 120.053 193.117L107.867 191.373C107.535 191.907 107.262 192.548 107.048 193.295C106.835 194.043 106.728 194.862 106.728 195.74C106.728 199.109 108.71 201.803 112.673 203.82C116.636 205.849 122.153 206.857 129.236 206.857C133.971 206.857 138.017 206.371 141.398 205.398C144.78 204.425 147.366 202.989 149.158 201.091C150.95 199.192 151.852 196.879 151.852 194.15C151.852 191.765 151.318 189.878 150.238 188.478C149.158 187.078 147.651 186.022 145.717 185.31C143.783 184.598 141.529 184.112 138.942 183.827L124.787 182.344C122.936 182.142 121.666 181.81 120.954 181.335C120.243 180.872 119.887 180.315 119.887 179.686C119.887 179.14 120.124 178.666 120.563 178.25V178.298ZM123.161 160.868C123.802 159.978 124.68 159.313 125.795 158.851C126.911 158.4 128.145 158.162 129.509 158.162C130.874 158.162 132.179 158.388 133.271 158.851C134.362 159.313 135.216 159.966 135.857 160.844C136.486 161.722 136.806 162.778 136.806 164.012C136.806 165.246 136.486 166.349 135.857 167.216C135.228 168.094 134.362 168.746 133.271 169.209C132.179 169.66 130.933 169.897 129.509 169.897C128.085 169.897 126.875 169.672 125.772 169.233C124.668 168.794 123.802 168.129 123.15 167.263C122.497 166.397 122.177 165.329 122.177 164.095C122.177 162.861 122.497 161.758 123.15 160.868H123.161Z" fill="white"></path>
        <path d="M169.756 130.09H156.431V189.404H169.756V130.09Z" fill="white"></path>
        <path d="M207.891 150.984C204.521 149.205 200.534 148.315 195.895 148.315C191.256 148.315 187.471 149.193 184.077 150.949C180.672 152.705 178.026 155.161 176.128 158.305C174.229 161.461 173.28 165.128 173.28 169.328C173.28 173.528 174.206 177.1 176.068 180.256C177.931 183.424 180.553 185.892 183.947 187.672C187.34 189.451 191.327 190.341 195.907 190.341C199.241 190.341 202.243 189.962 204.877 189.202C207.523 188.443 209.777 187.411 211.628 186.105C213.491 184.8 214.951 183.329 216.007 181.703C217.075 180.078 217.68 178.381 217.834 176.637H204.474C204.403 177.064 204.201 177.503 203.88 177.942C203.56 178.381 203.097 178.785 202.48 179.152C201.863 179.52 201.057 179.817 200.048 180.042C199.051 180.268 197.853 180.386 196.465 180.386C194.21 180.386 192.371 179.936 190.924 179.034C189.476 178.132 188.408 176.827 187.72 175.13C187.471 174.501 187.269 173.813 187.115 173.101H218.249C218.297 172.769 218.332 172.33 218.368 171.772C218.392 171.215 218.404 170.598 218.404 169.909C218.404 165.531 217.49 161.722 215.675 158.483C213.847 155.244 211.261 152.729 207.891 150.949V150.984ZM190.947 159.373C192.347 158.531 194.068 158.104 196.085 158.104C198.102 158.104 199.787 158.471 201.057 159.219C202.326 159.966 203.24 160.904 203.833 162.031C204.284 162.909 204.557 163.787 204.652 164.665H187.21C187.364 164.107 187.53 163.585 187.756 163.087C188.479 161.45 189.535 160.216 190.947 159.373Z" fill="white"></path>
        <path d="M252.409 167.762C250.689 166.86 248.885 166.172 246.987 165.697C245.088 165.223 243.356 164.867 241.79 164.629C240.2 164.38 238.776 164.107 237.542 163.811C236.308 163.514 235.323 163.146 234.623 162.695C233.923 162.245 233.555 161.687 233.555 161.022C233.555 160.263 233.864 159.693 234.469 159.302C235.074 158.91 235.81 158.637 236.676 158.471C237.542 158.305 238.337 158.222 239.061 158.222C239.915 158.222 240.758 158.353 241.588 158.602C242.407 158.851 243.095 159.243 243.641 159.777C244.187 160.31 244.46 160.999 244.46 161.865V162.28H257.737V161.829C257.737 159.041 256.859 156.644 255.103 154.615C253.347 152.586 251.057 151.032 248.233 149.952C245.409 148.861 242.383 148.327 239.144 148.327C235.727 148.327 232.594 148.825 229.747 149.81C226.899 150.795 224.621 152.242 222.9 154.152C221.18 156.063 220.314 158.448 220.314 161.307C220.314 163.407 220.824 165.175 221.833 166.623C222.841 168.07 224.17 169.257 225.819 170.194C227.469 171.132 229.236 171.879 231.147 172.437C233.057 172.994 234.896 173.41 236.664 173.694C239.749 174.205 241.944 174.679 243.249 175.142C244.554 175.593 245.207 176.364 245.207 177.456C245.207 178.144 244.899 178.702 244.282 179.141C243.665 179.58 242.905 179.9 242.003 180.09C241.102 180.28 240.224 180.375 239.369 180.375C237.471 180.375 235.976 180.102 234.872 179.544C233.769 178.986 233.223 178.073 233.223 176.815V176.364H219.792V176.898C219.792 179.152 220.338 181.122 221.441 182.819C222.544 184.516 224.004 185.928 225.843 187.055C227.682 188.182 229.723 189.024 231.989 189.582C234.255 190.14 236.593 190.413 238.99 190.413C241.386 190.413 243.617 190.175 245.895 189.689C248.173 189.214 250.25 188.443 252.136 187.399C254.023 186.355 255.518 184.978 256.633 183.282C257.749 181.585 258.306 179.52 258.306 177.1C258.306 174.798 257.76 172.9 256.657 171.404C255.554 169.909 254.142 168.723 252.421 167.821L252.409 167.762Z" fill="white"></path>
        <path d="M279.248 146.06C279.248 143.201 281.681 140.935 285.039 140.935C288.396 140.935 290.497 142.536 292.763 145.55L301.33 137.399C298.731 133.281 293.012 129.081 284.861 129.081C274.36 129.081 266.968 136.805 266.968 145.882C266.968 149.75 267.976 152.942 270.409 156.3C263.942 159.907 260.75 165.46 260.75 172.093C260.75 182.427 268.558 190.318 280.743 190.318C287.044 190.318 292.668 187.885 296.121 184.943L300.238 189.392H315.271L282.345 152.515C280.328 150.249 279.237 148.564 279.237 146.048L279.248 146.06ZM281.099 178.571C276.057 178.571 272.948 175.628 272.948 171.262C272.948 168.07 274.289 165.638 277.148 164.036L287.898 175.878C286.213 177.646 283.947 178.559 281.099 178.559V178.571Z" fill="white"></path>
        <path d="M316.577 189.404H330.091V167.323H348.909V157.036H330.091V143.675H352.291V133.436H316.577V189.404Z" fill="white"></path>
        <path d="M380.257 148.315C378.228 148.315 376.413 148.635 374.811 149.264C373.209 149.893 371.797 150.806 370.599 151.981C369.816 152.752 369.128 153.642 368.534 154.615V149.122H354.984V189.428H368.534V171.404C368.534 170.064 368.712 168.723 369.08 167.382C369.448 166.041 370.041 164.831 370.86 163.74C371.679 162.648 372.782 161.782 374.159 161.141C375.535 160.5 377.232 160.168 379.225 160.168C380.388 160.168 381.361 160.299 382.144 160.571C382.927 160.833 383.437 161.034 383.663 161.165L385.68 149.216C385.454 149.086 384.897 148.908 384.03 148.683C383.152 148.457 381.895 148.338 380.257 148.338V148.315Z" fill="white"></path>
        <path d="M399.574 132.806C398.055 131.762 396.275 131.228 394.223 131.228C392.17 131.228 390.426 131.75 388.895 132.806C387.365 133.851 386.605 135.369 386.605 137.339C386.605 139.309 387.365 140.792 388.895 141.86C390.426 142.928 392.206 143.45 394.223 143.45C396.24 143.45 398.055 142.928 399.574 141.872C401.093 140.827 401.852 139.309 401.852 137.339C401.852 135.369 401.093 133.851 399.574 132.806Z" fill="white"></path>
        <path d="M400.938 149.109H387.542V189.415H400.938V149.109Z" fill="white"></path>
        <path d="M438.124 150.984C434.754 149.205 430.768 148.315 426.128 148.315C421.489 148.315 417.704 149.193 414.311 150.949C410.905 152.705 408.259 155.161 406.361 158.305C404.462 161.461 403.513 165.128 403.513 169.328C403.513 173.528 404.439 177.1 406.302 180.256C408.164 183.424 410.787 185.892 414.18 187.672C417.574 189.451 421.56 190.341 426.128 190.341C429.462 190.341 432.464 189.962 435.098 189.202C437.744 188.443 439.999 187.411 441.85 186.105C443.713 184.8 445.172 183.329 446.228 181.703C447.296 180.078 447.901 178.381 448.043 176.637H434.683C434.612 177.064 434.41 177.503 434.09 177.942C433.77 178.381 433.307 178.785 432.69 179.152C432.073 179.52 431.266 179.817 430.257 180.042C429.261 180.268 428.062 180.386 426.674 180.386C424.42 180.386 422.581 179.936 421.133 179.034C419.686 178.132 418.618 176.827 417.929 175.13C417.68 174.501 417.479 173.813 417.324 173.101H448.459C448.506 172.769 448.542 172.33 448.577 171.772C448.601 171.215 448.613 170.598 448.613 169.909C448.613 165.531 447.699 161.722 445.884 158.483C444.069 155.244 441.47 152.729 438.1 150.949L438.124 150.984ZM421.181 159.373C422.581 158.531 424.301 158.104 426.318 158.104C428.335 158.104 430.02 158.471 431.29 159.219C432.559 159.966 433.473 160.904 434.054 162.031C434.505 162.909 434.778 163.787 434.885 164.665H417.443C417.597 164.107 417.763 163.585 417.989 163.087C418.713 161.45 419.769 160.216 421.181 159.373Z" fill="white"></path>
        <path d="M487.673 150.355C485.585 148.991 482.856 148.302 479.498 148.302C476.14 148.302 473.387 149.038 470.813 150.497C468.677 151.708 466.933 153.357 465.533 155.374V149.086H452.018V189.392H465.533V168.746C465.533 166.895 465.829 165.293 466.411 163.929C466.992 162.564 467.87 161.508 469.033 160.761C470.196 160.013 471.631 159.646 473.316 159.646C475.286 159.646 476.769 160.061 477.742 160.88C478.715 161.698 479.379 162.778 479.712 164.107C480.056 165.436 480.222 166.86 480.222 168.378V189.404H493.736V164.427C493.736 161.259 493.25 158.471 492.277 156.039C491.304 153.606 489.773 151.708 487.685 150.343L487.673 150.355Z" fill="white"></path>
        <path d="M527.801 153.607C526.781 152.539 525.654 151.589 524.384 150.795C521.75 149.133 518.831 148.315 515.616 148.315C512.4 148.315 509.315 149.11 506.432 150.711C503.549 152.301 501.212 154.651 499.408 157.736C497.616 160.821 496.715 164.594 496.715 169.043C496.715 173.73 497.593 177.646 499.337 180.802C501.081 183.97 503.395 186.355 506.266 187.956C509.137 189.558 512.258 190.365 515.616 190.365C518.974 190.365 521.786 189.475 524.42 187.707C525.666 186.865 526.793 185.88 527.801 184.765V189.416H541.352V130.102H527.801V153.618V153.607ZM526.568 174.857C525.749 176.139 524.693 177.112 523.4 177.8C522.106 178.488 520.742 178.82 519.306 178.82C517.052 178.82 515.058 178.037 513.314 176.471C511.57 174.905 510.692 172.425 510.692 169.031C510.692 165.638 511.57 163.194 513.314 161.687C515.058 160.18 517.063 159.432 519.306 159.432C520.694 159.432 522.035 159.753 523.328 160.405C524.622 161.058 525.69 161.983 526.532 163.217C527.374 164.451 527.801 165.958 527.801 167.75V170.289C527.801 172.057 527.386 173.588 526.568 174.857Z" fill="white"></path>
        <path d="M581.409 171.345C580.305 169.85 578.893 168.664 577.173 167.762C575.452 166.86 573.637 166.172 571.75 165.697C569.852 165.223 568.12 164.867 566.553 164.629C564.963 164.38 563.54 164.107 562.306 163.811C561.072 163.514 560.087 163.146 559.387 162.695C558.687 162.245 558.331 161.687 558.331 161.022C558.331 160.263 558.639 159.693 559.244 159.302C559.849 158.91 560.585 158.637 561.451 158.471C562.317 158.305 563.112 158.222 563.848 158.222C564.702 158.222 565.545 158.353 566.375 158.602C567.194 158.851 567.882 159.243 568.428 159.777C568.974 160.31 569.247 160.999 569.247 161.865V162.28H582.524V161.829C582.524 159.041 581.646 156.644 579.89 154.615C578.134 152.586 575.844 151.032 573.02 149.952C570.196 148.861 567.17 148.327 563.931 148.327C560.514 148.327 557.382 148.825 554.534 149.81C551.686 150.795 549.408 152.242 547.688 154.152C545.967 156.063 545.113 158.448 545.113 161.307C545.113 163.407 545.623 165.175 546.632 166.623C547.64 168.07 548.969 169.257 550.618 170.194C552.268 171.132 554.036 171.879 555.946 172.437C557.856 172.994 559.695 173.41 561.463 173.694C564.548 174.205 566.743 174.679 568.048 175.142C569.354 175.593 570.006 176.364 570.006 177.456C570.006 178.144 569.698 178.702 569.081 179.141C568.464 179.58 567.704 179.9 566.803 180.09C565.901 180.28 565.023 180.375 564.168 180.375C562.27 180.375 560.775 180.102 559.672 179.544C558.568 178.986 558.022 178.073 558.022 176.815V176.364H544.591V176.898C544.591 179.152 545.137 181.122 546.24 182.819C547.344 184.516 548.803 185.928 550.642 187.055C552.481 188.182 554.522 189.024 556.788 189.582C559.055 190.14 561.392 190.413 563.789 190.413C566.186 190.413 568.416 190.175 570.694 189.689C572.972 189.214 575.049 188.443 576.935 187.399C578.822 186.355 580.317 184.978 581.432 183.282C582.548 181.585 583.105 179.52 583.105 177.1C583.105 174.798 582.56 172.9 581.456 171.404L581.409 171.345Z" fill="white"></path>
        <path d="M249.68 248.849V225.237H251.341C254.676 225.237 256.894 225.106 259.184 227.717C261.201 230.125 262.103 233.934 262.103 236.853C262.103 239.772 261.546 242.691 259.884 245.23C259.125 246.44 258.081 247.389 256.764 248.089C254.96 248.979 253.714 248.849 251.769 248.849H249.692H249.68ZM235.039 258.875H253.572C260.169 258.875 266.066 257.475 270.789 252.966C275.167 248.837 277.386 242.869 277.386 237.161C277.386 230.944 275.096 224.976 270.1 220.657C264.963 216.148 259.481 215.329 252.611 215.329H235.05V258.887L235.039 258.875Z" fill="white"></path>
        <path d="M320.255 232.913V224.596H326.152C327.54 224.596 329.071 224.596 330.317 225.165C331.776 225.865 332.606 227.265 332.606 228.725C332.606 232.474 328.786 232.913 325.594 232.913H320.255ZM348.031 258.874L339.417 239.89C345.041 237.541 347.818 234.112 347.818 228.404C347.818 224.145 345.943 220.277 341.992 217.987C338.456 215.827 333.876 215.317 329.699 215.317H305.471V258.874H320.255V242.239H324.835L331.776 258.874H348.019H348.031Z" fill="white"></path>
        <path d="M283.247 227.527C290.675 226.222 290.675 228.856 298.102 227.527V258.875H283.247V227.527Z" fill="white"></path>
        <path d="M283.247 215.021C290.675 213.704 290.675 216.338 298.102 215.021V223.694C290.675 224.999 290.675 222.365 283.247 223.694V215.021Z" fill="white"></path>
    </g>
    <defs>
        <linearGradient id="paint0_linear_748_2082" x1="273.601" y1="37.6243" x2="271.797" y2="102.159" gradientUnits="userSpaceOnUse">
            <stop stop-color="#48ABEE"></stop>
            <stop offset="1" stop-color="#3252EB"></stop>
        </linearGradient>
        <linearGradient id="paint1_linear_748_2082" x1="310.015" y1="40.7686" x2="310.62" y2="90.4958" gradientUnits="userSpaceOnUse">
            <stop stop-color="#EACE28"></stop>
            <stop offset="1" stop-color="#F7B608"></stop>
        </linearGradient>
        <linearGradient id="paint2_linear_748_2082" x1="291.102" y1="20.93" x2="291.707" y2="108.282" gradientUnits="userSpaceOnUse">
            <stop stop-color="#F695F1"></stop>
            <stop offset="1" stop-color="#F664EE"></stop>
        </linearGradient>
        <clipPath id="clip0_748_2082">
            <rect width="583.058" height="258.876" fill="white"></rect>
        </clipPath>
    </defs>
</svg>